<svg xmlns="http://www.w3.org/2000/svg" xmlns:xlink="http://www.w3.org/1999/xlink" viewBox="0 0 269 56"><defs><style>.a{clip-path:url(#b);}.b,.i{fill:#707070;}.b{font-size:37px;font-family:HelveticaNeue-Thin, Helvetica Neue;font-weight:200;}.c{fill:#36a7e3;}.d,.e,.f,.h{fill:none;}.d{stroke:#707070;}.e{stroke:#adadad;}.g,.i{stroke:none;}</style><clipPath id="b"><rect width="269" height="56"/></clipPath></defs><g id="a" class="a"><g transform="translate(-494 -208)"><text class="b" transform="translate(573.457 249.814)"><tspan x="0" y="0">Hyper </tspan><tspan class="c" y="0">Editor</tspan></text><g class="d" transform="translate(494 208)"><rect class="g" width="67.83" height="17.442"/><rect class="h" x="0.5" y="0.5" width="66.83" height="16.442"/></g><g class="d" transform="translate(494 227.38)"><rect class="g" width="33.411" height="17.442"/><rect class="h" x="0.5" y="0.5" width="32.411" height="16.442"/></g><line class="e" x2="15.504" transform="translate(498.845 212.845)"/><line class="e" x2="56.202" transform="translate(498.845 216.721)"/><line class="e" x2="56.202" transform="translate(498.845 220.597)"/><line class="e" x2="15.504" transform="translate(498.845 232.225)"/><line class="e" x2="25.194" transform="translate(498.845 236.101)"/><line class="e" x2="25.194" transform="translate(498.845 239.977)"/><g class="f" transform="translate(528.884 227.38)"><path class="g" d="M0,0H33.091V17.442H0Z"/><path class="i" d="M 1 0.9999961853027344 L 1 16.44187545776367 L 32.09066009521484 16.44187545776367 L 32.09066009521484 0.9999961853027344 L 1 0.9999961853027344 M 0 -3.814697265625e-06 L 33.09066009521484 -3.814697265625e-06 L 33.09066009521484 17.44187545776367 L 0 17.44187545776367 L 0 -3.814697265625e-06 Z"/></g><line class="e" x2="15.504" transform="translate(533.729 232.225)"/><line class="e" x2="23.766" transform="translate(533.729 236.101)"/><line class="e" x2="23.766" transform="translate(533.729 239.977)"/><g class="d" transform="translate(494 246.76)"><rect class="g" width="49.257" height="17.442"/><rect class="h" x="0.5" y="0.5" width="48.257" height="16.442"/></g><line class="e" x2="15.504" transform="translate(498.845 251.605)"/><line class="e" x2="41.04" transform="translate(498.845 255.481)"/><line class="e" x2="41.04" transform="translate(498.845 259.357)"/><g class="f" transform="translate(544.388 246.76)"><path class="g" d="M0,0H17.587V17.442H0Z"/><path class="i" d="M 0.9999961853027344 0.9999961853027344 L 0.9999961853027344 16.44187545776367 L 16.5867748260498 16.44187545776367 L 16.5867748260498 0.9999961853027344 L 0.9999961853027344 0.9999961853027344 M -3.814697265625e-06 -3.814697265625e-06 L 17.5867748260498 -3.814697265625e-06 L 17.5867748260498 17.44187545776367 L -3.814697265625e-06 17.44187545776367 L -3.814697265625e-06 -3.814697265625e-06 Z"/></g><line class="e" x2="5.814" transform="translate(547.295 251.605)"/><line class="e" x2="11.765" transform="translate(547.158 255.481)"/><line class="e" x2="11.765" transform="translate(547.158 259.357)"/></g></g></svg>